<?xml version="1.0" encoding="utf-8"?>
<!-- Generator: Adobe Illustrator 19.1.0, SVG Export Plug-In . SVG Version: 6.00 Build 0)  -->
<svg version="1.1" id="Layer_1" xmlns="http://www.w3.org/2000/svg" xmlns:xlink="http://www.w3.org/1999/xlink" x="0px" y="0px"
	 viewBox="-19.7 -21.8 634.8 238.6" style="enable-background:new -19.7 -21.8 634.8 238.6;" xml:space="preserve">
<style type="text/css">
	.st0{fill:#00AEEF;}
	.st1{fill:#273444;}
	.st2{fill:#EC008C;}
</style>
<path class="st0" d="M112.8,41.7c-2.8-2.9-4.1-6.4-4.1-10.5c0.1-4.1,1.6-7.6,4.5-10.4s6.4-4.1,10.5-4.1c4.1,0.1,7.6,1.6,10.4,4.5
	s4.1,6.4,4.1,10.5c-0.1,4.1-1.6,7.6-4.5,10.4c-2.9,2.8-6.4,4.1-10.5,4.1C119.1,46,115.6,44.6,112.8,41.7z"/>
<path class="st1" d="M134.3,144.2c-8.4,0-16.8,0-25.1,0c0.4-30.8,0.7-61.4,1.1-92.2c8.4,0,16.7,0,25.1,0
	C135,82.8,134.7,113.6,134.3,144.2z"/>
<path class="st1" d="M200.9,51.6c10.5,0.1,19.8,4.7,27.8,13.5c8.1,8.9,12,19.9,11.8,33.2c-0.2,13.3-4.5,24.2-12.7,33
	c-8.3,8.8-17.9,13.2-28.9,13c-11-0.2-19.8-4.7-26.3-13.6c-0.4,28.7-0.8,57.4-1.3,86.1c-8.4-0.1-16.8-0.2-25.3-0.3
	c0.8-54.8,1.8-109.5,2.6-164.3c8.3,0,16.7,0.1,25,0.1c0,3.5-0.1,6.9-0.1,10.5C181.3,55.1,190.5,51.4,200.9,51.6z M172.7,97.7
	c-0.1,7.3,1.9,13.3,5.8,17.9c4,4.7,8.9,7,14.7,7.1c5.8,0.1,10.9-2.2,15.3-6.7c4.5-4.6,6.6-10.5,6.7-17.7c0.1-7.3-2-13.4-6.1-18.3
	c-4.1-5-9.2-7.5-15.1-7.6c-5.9-0.1-10.9,2.3-15,7C174.9,84.4,172.9,90.5,172.7,97.7z"/>
<path class="st1" d="M317.6,115.5c-0.1,8.8-3.4,15.9-10,21c-6.5,5.2-14.8,7.8-24.8,7.7c-6.6-0.1-13.6-1.3-20.7-3.8
	c-7.3-2.5-12.3-5.8-13.7-6.6c-1.3-0.9-2.5-1.8-3.3-2.3c2.9-5.8,5.9-11.5,8.8-17.3c0.7,0.6,1.6,1.3,2.7,2.1c2,1.5,3.7,2.5,4.9,3.1
	c2.1,1.1,3.9,2,5.4,2.5c0.6,0.3,3.3,1.2,7.3,2.2c3.1,0.7,5.8,1.3,9.4,1.2c4.7-0.1,6.6-1.1,7.7-1.8c1.9-1.2,2.9-2.9,2.9-5
	c0-2.1-1.2-4-3.8-5.9c-2.6-1.8-6.3-3.5-11.2-5.2c-4.9-1.7-8.7-3-11.2-4.1c-2.6-1.1-5.5-2.8-8.8-5c-6.7-4.4-9.9-10.6-9.8-18.9
	s3.5-14.9,10.3-20c6.7-5.1,15.3-7.6,25.8-7.5c10.6,0.2,21,3.9,31.4,11.2l-9.5,16.5c-7.7-5.4-15.3-8.2-23-8.3s-11.6,2-11.6,6.1
	c0,2.3,1.1,4.1,3.6,5.5c2.4,1.3,6.4,3,12,4.9c5.6,1.9,9.6,3.3,12,4.2c2.4,0.9,5.2,2.5,8.5,4.6C314.7,100.4,317.7,106.8,317.6,115.5z
	"/>
<path class="st1" d="M354.4,95.2c0,1.2-0.2,4.5-0.2,10.6c0,5.1,0,7.7,0,14c0,10.2,0,13.5-0.1,14.7c-0.1,4.1-0.1,7.6-0.2,9.6
	c-8.4,0-16.8,0-25.3,0c0.8-55.3,1.7-110.6,2.4-166c8.3,0.1,16.6,0.2,24.8,0.3c-0.3,28.4-0.7,56.8-1,85.2
	c7.7-7.6,16.3-11.3,25.7-11.2c9.4,0.1,17.3,3.6,23.6,10.4c6.3,6.7,9.4,15.7,9.3,26.8c-0.1,4.4,0.2,11.8-0.3,26.8
	c-0.1,3.6-0.3,8.4-0.3,15.4c0,5.1,0,9.2,0.1,12.1c-8.4,0-16.9,0-25.3,0c0.2-16.4,0.5-32.7,0.7-49.2c0.2-13.8-4.8-20.8-14.9-20.9
	c-5-0.1-9.4,1.7-13.2,5.3C356.4,82.9,354.5,88.2,354.4,95.2z"/>
<path class="st2" d="M430.9,41.7c-2.8-2.9-4.1-6.4-4.1-10.5c0.1-4.1,1.6-7.6,4.5-10.4s6.4-4.1,10.5-4.1c4.1,0.1,7.6,1.6,10.4,4.5
	s4.1,6.4,4.1,10.5c-0.1,4.1-1.6,7.6-4.5,10.4c-2.9,2.8-6.4,4.1-10.5,4.1C437.1,46,433.7,44.6,430.9,41.7z"/>
<path class="st1" d="M452.5,144.2c-8.4,0-16.7,0-25.1,0c0.4-30.7,0.8-61.4,1.2-92.1c8.4,0,16.8,0,25.2,0.1
	C453.3,82.8,452.9,113.6,452.5,144.2z"/>
<path class="st1" d="M514.3,75.9c-7.6-0.1-13.3,2.5-17,7.8c-3.8,5.3-5.8,12.3-5.9,21.1c-0.2,13.2-0.4,26.3-0.6,39.5
	c-8.5,0-16.9,0-25.4,0c0.4-30.5,0.8-60.9,1.3-91.4c8.5,0,16.9,0,25.4,0c-0.1,4.1-0.1,8.2-0.2,12.3c3.3-3.6,7.5-6.7,12.4-9.3
	c5-2.5,9.9-3.8,15-3.8l-0.2,23.8H514.3z"/>
<path class="st1" d="M615,93.7c0.1,3.1-0.2,7.3-1.2,12c-1.1,4.8-2.7,8.3-3.4,9.9s-3.8,7.9-10.4,14.2c-9.5,9.3-20.3,14.1-32.3,14.2
	c-12,0.2-22.8-4.7-32.4-14.6s-14.1-20.9-13.5-32.9c0.6-12,5.4-22.3,14-30.8c8.7-8.4,18.5-13,29.7-13.7c11.2-0.6,21.1,3.6,30,12.7
	l9.1,9.4l-46,44.7c1,0.7,2.6,1.7,4.7,2.5c5.3,2.1,9.9,1.6,12.8,1.2c5.6-0.6,9.5-2.5,12.1-3.7c6.1-3,10-6.5,13.7-9.8
	C605.6,105.6,610.4,100.6,615,93.7z M562,74.4c-4.4,0.3-8.3,2.2-11.8,5.6c-3.5,3.4-5.6,7.6-6.5,12.4c-0.8,5,0.2,9.4,3.3,13.5
	L574.6,79C570.6,75.7,566.3,74.1,562,74.4z"/>
<path class="st1" d="M497.8,117.7"/>
<path class="st1" d="M16.2,70.5c-0.1,19.2-0.1,33.2,0,36.2c0,1.3,0.1,2.1,0.2,3.5c0,0,0.3,2.4,0.8,4.5c0,0.1,0.2,0.7,0.6,1.1l0,0
	c0.3,0.4,0.6,0.7,0.6,0.8c0.3,0.5,1.5,1.2,2.3,1.6c0.7,0.4,1.3,0.5,1.8,0.7c0.3,0.1,1.7,0.5,3.7,0.7c0.7,0.1,1.8,0.1,2.9,0
	c0,8.2,0,16.5,0.1,24.7c-0.9,0-2.4,0-4,0c-1.2,0-2.5,0-3.5,0c0,0-7.6-0.2-13.4-2.8c-0.2-0.1-0.3-0.1-0.3-0.1
	c-2.9-1.3-5.7-3.3-8.2-5.6c-6-5.7-9-13.6-9-23.4V70.5h-10.6V52.2h10.6v-27h25.4v27.1h21.9v18.1L16.2,70.5L16.2,70.5z"/>
<path class="st1" d="M94.1,75.9c-7.6-0.1-13.3,2.5-17,7.8c-3.8,5.3-5.8,12.3-5.9,21.1c-0.2,13.2-0.4,26.3-0.6,39.5
	c-8.5,0-16.9,0-25.4,0c0.4-30.5,0.8-60.9,1.3-91.4c8.5,0,16.9,0,25.4,0c-0.1,4.1-0.1,8.2-0.2,12.3c3.3-3.6,7.5-6.7,12.4-9.3
	c5-2.5,9.9-3.8,15-3.8L99,75.9H94.1z"/>
</svg>
