<?xml version="1.0" encoding="iso-8859-1"?>
<!-- Generator: Adobe Illustrator 19.0.0, SVG Export Plug-In . SVG Version: 6.00 Build 0)  -->
<svg xmlns="http://www.w3.org/2000/svg" xmlns:xlink="http://www.w3.org/1999/xlink" version="1.1" id="Layer_1" x="0px" y="0px" viewBox="0 0 512 512" style="enable-background:new 0 0 512 512;" xml:space="preserve" width="512" height="512">
<path style="fill-rule:evenodd;clip-rule:evenodd;fill:#FDD99B;" d="M263.582,426.399l-110.789-29.045  c-5.633-1.501-10.983-1.954-15.993-1.614l-26.721,11.845c-27.966,26.494-23.947,87.898,41.355,87.927h61.933  c-19.474-13.317-21.202-43.751,10.444-55L263.582,426.399z"/>
<path style="fill-rule:evenodd;clip-rule:evenodd;fill:#FFA21F;" d="M364.746,391.121l-6.256-2.776  c-15.087-7.679-22.559-11.079-26.212-17.285l-152.482-0.142c-3.622,6.29-11.068,9.691-26.296,17.427l-16.7,7.396  c5.01-0.34,10.36,0.113,15.993,1.614l110.789,29.045l93.691-33.238C359.82,392.255,362.311,391.603,364.746,391.121L364.746,391.121  z"/>
<path style="fill-rule:evenodd;clip-rule:evenodd;fill:#FDD99B;" d="M223.811,440.512c-31.645,11.249-29.918,41.683-10.444,55h0.027  C193.893,482.194,192.166,451.761,223.811,440.512L223.811,440.512z M375.644,489.703c47.864-8.586,53.157-51.26,35.92-77.869  l-46.818-20.713c-2.435,0.482-4.926,1.134-7.473,2.04l-93.691,33.238l-39.771,14.112c-31.645,11.249-29.918,41.683-10.444,55  c6.624,4.533,15.313,7.083,25.418,6.234l14.69-1.247l106.657-9.379C365.595,490.78,371.822,490.411,375.644,489.703L375.644,489.703  z"/>
<path style="fill-rule:evenodd;clip-rule:evenodd;fill:#FDD99B;" d="M443.126,370.04l-54.149-27.203l-0.086-76.734  c-0.083-54.094-22.955-54.207-59.895-54.234v83.534v29.81c0,27.146-1.047,38.48,3.282,45.848  c3.653,6.206,11.125,9.606,26.212,17.285l6.256,2.776l46.818,20.713l3.169,1.419C454.533,431.359,470.752,383.952,443.126,370.04  L443.126,370.04z"/>
<path style="fill-rule:evenodd;clip-rule:evenodd;fill:#FDD99B;" d="M183.024,325.212v-29.81v-83.534  c-36.94,0.027-59.839,0.141-59.896,54.234l-0.113,76.734L68.895,370.04c-27.655,13.885-11.436,61.319,28.362,43.213l12.823-5.668  L136.8,395.74l16.7-7.396c15.228-7.735,22.674-11.137,26.296-17.427C184.043,363.551,183.024,352.188,183.024,325.212  L183.024,325.212z"/>
<path style="fill-rule:evenodd;clip-rule:evenodd;fill:#FC4250;" d="M328.996,295.402v-83.534h-37.308  c0,19.75-15.964,35.731-35.692,35.731c-19.701,0-35.694-15.981-35.694-35.731h-37.277v83.534v29.81  c0,26.976,1.019,38.339-3.228,45.706l152.482,0.142c-4.329-7.367-3.282-18.701-3.282-45.848V295.402z"/>
<path style="fill-rule:evenodd;clip-rule:evenodd;fill:#FDD99B;" d="M255.996,247.6c19.729,0,35.692-15.981,35.692-35.731v-28.28  c-11.803,6.319-24.342,10.116-35.579,10.74c-9.2,0.509-22.532-3.57-35.808-10.995v28.535  C220.301,231.618,236.295,247.6,255.996,247.6L255.996,247.6z"/>
<path style="fill-rule:evenodd;clip-rule:evenodd;fill:#FDD99B;" d="M291.688,183.588c24.769-13.262,46.394-37.602,46.394-67.015  l0.113-29.271c0-1.813-0.057-3.571-0.197-5.328c-33.486,27.968-83.644,1.475-105.722-9.437  c-22.051,10.882-25.701,13.659-57.801,9.437c-0.142,1.757-0.227,3.542-0.227,5.328l-0.141,32.784  c0,26.947,22.984,50.239,46.194,63.246c13.275,7.425,26.607,11.504,35.808,10.995C267.346,193.704,279.885,189.907,291.688,183.588  L291.688,183.588z"/>
<path style="fill-rule:evenodd;clip-rule:evenodd;fill:#B3B3B3;" d="M337.998,81.975c-3.115-40.407-42.714-71.633-80.729-71.889  h-0.934c-39.458,0.256-78.52,32.104-81.86,71.889c32.1,4.223,35.75,1.445,57.801-9.437  C254.354,83.449,304.511,109.942,337.998,81.975L337.998,81.975z"/>
<g>
	<path d="M447.651,361.029l-48.6-24.415l-0.079-70.527c-0.045-29.235-6.422-46.447-20.674-55.807   c-12.899-8.47-29.766-8.482-49.295-8.496c-0.002,0-0.004,0-0.008,0H301.77V189.43c5.22-3.165,10.242-6.755,14.912-10.737   c20.302-17.313,31.482-39.374,31.482-62.08l0.113-29.276c0.072-21.434-8.94-42.319-25.375-58.812   C305.102,10.663,280.401,0,256.827,0l-0.562,0.002c-22.525,0.154-45.552,9.452-63.176,25.511   c-18.591,16.938-28.862,38.873-28.923,61.746l-0.142,32.828c0,21.531,12.183,43.055,34.303,60.607   c3.822,3.032,7.82,5.824,11.892,8.366v12.725h-27.194c-0.003,0-0.006,0-0.008,0c-19.533,0.014-36.402,0.026-49.304,8.496   c-14.263,9.361-20.637,26.575-20.667,55.808l-0.104,70.526l-48.57,24.414c-14.815,7.438-22.198,23.29-18.371,39.447   c3.814,16.105,17.624,26.928,34.364,26.928c2.052,0,4.143-0.175,6.256-0.484c-4.34,13.646-4.218,28.652,1.078,41.953   c9.286,23.325,32.516,36.71,63.737,36.724h58.975c6.771,3.972,14.993,6.404,24.426,6.404c1.567-0.001,3.171-0.067,4.804-0.206   l29.391-2.496l4.474-0.398c5.547-0.493,9.644-5.39,9.15-10.938c-0.49-5.547-5.376-9.628-10.935-9.153l-33.782,2.887   c-15.666,1.335-26.019-7.974-28.153-17.845c-2.22-10.263,4.287-19.174,17.399-23.835l133.469-47.354   c1.009-0.358,2.031-0.677,3.087-0.961l9.513,4.209l31.343,13.881c6.538,11.674,7.712,25.92,2.891,37.039   c-5.204,12-16.83,19.935-33.65,22.951c-3.285,0.6-9.567,0.977-14.616,1.28c-2.701,0.162-5.251,0.315-7.272,0.493   c-5.548,0.488-9.649,5.382-9.162,10.93c0.488,5.548,5.384,9.652,10.929,9.163c1.742-0.153,4.157-0.299,6.713-0.452   c5.881-0.354,12.547-0.755,16.999-1.566c23.412-4.2,40.658-16.549,48.56-34.774c5.017-11.568,5.922-24.829,2.954-37.544   c0.904,0.058,1.803,0.093,2.694,0.093c0.002,0,0.002,0,0.004,0c16.729,0,30.535-10.811,34.359-26.903   C469.831,384.349,462.462,368.488,447.651,361.029z M256.406,20.171l0.421-0.002c18.332,0,37.694,8.445,51.792,22.594   c10.01,10.045,16.419,22.066,18.624,34.606c-27.417,17.457-68.058-2.726-88.119-12.689l-2.382-1.182   c-2.814-1.391-6.115-1.391-8.928-0.002l-2.96,1.465c-15.934,7.898-20.362,10.082-38.611,8.26   C193.927,44.264,223.936,20.394,256.406,20.171z M184.189,120.131l0.116-26.871c22.509,2.123,30.399-0.806,47.964-9.468   c16.471,8.158,42.992,20.775,69.487,20.775c8.9,0,17.795-1.439,26.309-4.934L328,116.573c0,38.278-43.606,66.088-72.444,67.686   c-0.33,0.019-0.666,0.027-1.012,0.027c-7.611-0.001-18.091-3.46-28.638-9.336c-0.38-0.254-0.783-0.475-1.197-0.676   C204.378,162.601,184.189,142.086,184.189,120.131z M281.606,199.081v12.787c0,14.142-11.488,25.648-25.61,25.648   s-25.611-11.506-25.611-25.648v-12.633c8.677,3.347,17.027,5.22,24.157,5.22c0.725,0,1.43-0.018,2.125-0.057   C264.744,203.95,273.215,202.097,281.606,199.081z M193.168,338.167c-0.029-3.867-0.061-8.163-0.061-12.955v-103.26h18.229   c4.601,20.43,22.878,35.731,44.66,35.731c21.78,0,40.056-15.302,44.658-35.731h18.259v103.26c0,4.827-0.033,9.152-0.063,13.041   c-0.074,9.633-0.128,16.854,0.406,22.711l-126.488-0.118C193.295,354.992,193.241,347.776,193.168,338.167z M93.174,404.031   c-0.031,0.014-0.062,0.027-0.093,0.042c-4.608,2.098-8.887,3.16-12.718,3.16c-8.877,0-13.436-5.893-14.742-11.408   c-1.316-5.556,0.042-12.878,7.801-16.774l54.12-27.203c3.401-1.709,5.549-5.188,5.555-8.995l0.113-76.739   c0.029-28.146,6.615-35.722,11.566-38.972c6.191-4.064,16.227-4.938,28.164-5.132v103.202c0,4.848,0.033,9.195,0.063,13.106   c0.111,14.757,0.178,23.663-1.856,27.427c-1.766,3.266-7.797,6.317-18.748,11.854l-3.221,1.631L93.174,404.031z M220.434,431.009   c-27.791,9.881-33.726,31.551-30.362,47.105c0.448,2.07,1.08,4.127,1.879,6.146c0.112,0.383,0.252,0.772,0.422,1.167h-40.934   c-22.86-0.01-38.844-8.538-45.005-24.016c-5.913-14.852-1.939-33.645,9.414-45.353l23.307-10.331   c3.627-0.088,7.324,0.381,11.081,1.383l79.106,20.738L220.434,431.009z M263.139,415.858l-93.403-24.486   c6.622-3.501,11.463-6.507,15.072-10.365l142.504,0.133c2.818,2.98,6.395,5.457,10.968,8.06L263.139,415.858z M446.376,395.838   c-1.31,5.51-5.869,11.398-14.741,11.398c-3.833-0.001-8.115-1.065-12.726-3.162c-0.03-0.015-0.062-0.028-0.093-0.042l-3.01-1.332   c-0.056-0.026-0.106-0.061-0.163-0.087l-33.391-14.773l-19.441-8.609l-3.195-1.618c-10.953-5.539-16.985-8.59-18.75-11.851   c-2.031-3.752-1.964-12.635-1.851-27.353c0.03-3.935,0.064-8.311,0.064-13.196V222.01c11.933,0.194,21.963,1.067,28.151,5.132   c4.949,3.248,11.532,10.824,11.576,38.973l0.086,76.734c0.004,3.809,2.153,7.291,5.557,9l54.142,27.199   C446.343,382.952,447.695,390.281,446.376,395.838z"/>
	<path d="M311.406,485.559l-0.283,0.028c-5.544,0.555-9.589,5.498-9.034,11.042c0.521,5.203,4.906,9.085,10.026,9.085   c0.335,0,0.675-0.017,1.016-0.051l0.283-0.028c5.544-0.555,9.589-5.498,9.034-11.042   C321.893,489.049,316.959,485.008,311.406,485.559z"/>
</g>















</svg>
